Nederlands of Engels gesproken
English or Dutch spoken

Met bekende Nederlandse stemmen,
Shrek (Myers) en Fiona (Diaz) zijn waarnemend koning en koningin. Ze vinden er maar niets aan, dus gaat Shrek samen met Donkey (Murphy) en Puss In Boots (Banderas) op zoek naar de ware troonopvolger. Dat blijkt een neef van Koningin Lillian te zijn, Artie, die op kostschool zit en totaal geen interesse heeft in het koningschap. Terwijl Shrek weg is, is Prince Charming bezig met een staatsgreep om Far Far Away over te nemen.

With the voices of Mike Myers, Eddie Murphy and Cameron Diaz
When his new father-in-law, King Harold falls ill, Shrek is looked at as the heir to the land of Far, Far Away. Not one to give up his beloved swamp, Shrek recruits his friends Donkey and Puss in Boots to install the rebellious Artie as the new king. Princess Fiona, however, rallies a band of royal girlfriends to fend off a coup d'etat by the jilted Prince Charming. 

------------------ Dutch Friends ------------------
You can find my Friends at: http://www.Film-Test.nl 
------ They got my dutchs subs ---- and more ------

General:

Complete name                    : Shrek The third\Shrek The Third.avi
Format                           : AVI
Format/Info                      : Audio Video Interleave
File size                        : 1.52 GiB
Duration                         : 1h 28mn
Overall bit rate                 : 2 447 Kbps

Video:

Format                           : MPEG-4 Visual
Format profile                   : Simple@L3
Format settings, BVOP            : No
Format settings, QPel            : No
Format settings, GMC             : No warppoints
Format settings, Matrix          : Default (H.263)
Codec ID                         : XVID
Codec ID/Hint                    : XviD
Duration                         : 1h 28mn
Bit rate                         : 1 598 Kbps
Width                            : 652 pixels
Height                           : 352 pixels
Display aspect ratio             : 1.852
Frame rate                       : 25.000 fps
Color space                      : YUV
Chroma subsampling               : 4:2:0
Bit depth                        : 8 bits
Scan type                        : Progressive
Bits/(Pixel*Frame)               : 0.279
Stream size                      : 1 016 MiB (65%)
Writing library                  : XviD 1.1.2 (UTC 2006-11-01)

Audio's:

Format                           : AC-3
Format/Info                      : Audio Coding 3
Mode extension                   : CM (complete main)
Codec ID                         : 2000
Duration                         : 1h 28mn
Bit rate mode                    : Constant
Bit rate                         : 448 Kbps
Channel(s)                       : 6 channels
Channel positions                : Front: L C R, Side: L R, LFE
Sampling rate                    : 48.0 KHz
Bit depth                        : 16 bits
Stream size                      : 285 MiB (18%)
Alignment                        : Aligned on interleaves
Interleave, duration             : 32 ms (0.80 video frame)
Interleave, preload duration     : 32 ms

